<svg xmlns="http://www.w3.org/2000/svg" width="128" height="128" viewBox="0 0 128 128" fill="none">
  <title>BookBerry</title>
  <path d="M24 36c0-7.732 6.268-14 14-14h34c7.732 0 14 6.268 14 14v66c0 2.21-1.79 4-4 4H40c-8.837 0-16-7.163-16-16V36Z" fill="#5A2A6E"/>
  <path d="M36 38c0-3.314 2.686-6 6-6h26c3.314 0 6 2.686 6 6v56c0 2.21-1.79 4-4 4H44c-4.418 0-8-3.582-8-8V38Z" fill="#FFF8F2"/>
  <path d="M86 24h6c6.627 0 12 5.373 12 12v44c0 9.941-8.059 18-18 18h-2V28c0-2.21 1.79-4 4-4Z" fill="#CBA0D9"/>
  <path d="M82 60c9-12 24-16 24-16-1 16-10 31-24 36V60Z" fill="#E94E77"/>
  <circle cx="78" cy="52" r="9" fill="#E94E77"/>
  <circle cx="92" cy="48" r="9" fill="#EF5B87"/>
  <circle cx="86" cy="62" r="9" fill="#DB4672"/>
  <path d="M86 40c0-10 9-18 20-18-3 10-11 20-20 22V40Z" fill="#059669" opacity=".95"/>
  <path d="M92 26c0 5-4 9-9 9 0-5 4-9 9-9Z" fill="#16A34A"/>
</svg>
